<svg xmlns="http://www.w3.org/2000/svg" width="512" height="512" viewBox="0 0 512 512">
  <defs>
    <linearGradient id="g" x1="0" x2="1" y1="0" y2="1">
      <stop offset="0" stop-color="#4f46e5"/>
      <stop offset="1" stop-color="#a855f7"/>
    </linearGradient>
  </defs>
  <rect x="48" y="48" width="416" height="416" rx="120" fill="url(#g)"/>
  <path fill="#ffffff" d="M256 132c-68.5 0-124 55.5-124 124s55.5 124 124 124c44.9 0 84.1-23.6 105.8-59.7l-55.7-23.9c-11.3 19.9-31.8 33.2-50.1 33.2-40.4 0-73.2-32.8-73.2-73.2s32.8-73.2 73.2-73.2c18.3 0 38.8 13.3 50.1 33.2l55.7-23.9C340.1 155.6 300.9 132 256 132z"/>
</svg>
